G04 EAGLE Gerber RS-274X export*
G75*
%MOMM*%
%FSLAX34Y34*%
%LPD*%
%INBottom Copper*%
%IPPOS*%
%AMOC8*
5,1,8,0,0,1.08239X$1,22.5*%
G01*
%ADD10P,1.429621X8X292.500000*%
%ADD11C,1.320800*%
%ADD12C,1.524000*%
%ADD13C,1.500000*%
%ADD14C,0.609600*%

G36*
X338910Y3052D02*
X338910Y3052D01*
X338929Y3050D01*
X339031Y3072D01*
X339133Y3088D01*
X339150Y3098D01*
X339170Y3102D01*
X339259Y3155D01*
X339350Y3204D01*
X339364Y3218D01*
X339381Y3228D01*
X339448Y3307D01*
X339520Y3382D01*
X339528Y3400D01*
X339541Y3415D01*
X339580Y3511D01*
X339623Y3605D01*
X339625Y3625D01*
X339633Y3643D01*
X339651Y3810D01*
X339651Y575350D01*
X339649Y575366D01*
X339650Y575393D01*
X339360Y580564D01*
X339353Y580596D01*
X339342Y580691D01*
X337040Y590775D01*
X337040Y590776D01*
X337040Y590778D01*
X336984Y590936D01*
X332496Y600255D01*
X332495Y600256D01*
X332495Y600257D01*
X332405Y600399D01*
X325956Y608486D01*
X325955Y608487D01*
X325955Y608488D01*
X325836Y608606D01*
X317749Y615055D01*
X317748Y615056D01*
X317747Y615057D01*
X317605Y615146D01*
X308286Y619634D01*
X308284Y619634D01*
X308283Y619635D01*
X308125Y619690D01*
X304998Y620404D01*
X304997Y620404D01*
X301662Y621165D01*
X298327Y621926D01*
X298041Y621992D01*
X298009Y621994D01*
X297914Y622010D01*
X292743Y622300D01*
X292726Y622298D01*
X292700Y622301D01*
X-292900Y622301D01*
X-292916Y622299D01*
X-292943Y622300D01*
X-298114Y622010D01*
X-298146Y622003D01*
X-298241Y621992D01*
X-308325Y619690D01*
X-308326Y619690D01*
X-308328Y619690D01*
X-308486Y619634D01*
X-317805Y615146D01*
X-317806Y615145D01*
X-317807Y615145D01*
X-317949Y615055D01*
X-326036Y608606D01*
X-326037Y608605D01*
X-326038Y608605D01*
X-326156Y608486D01*
X-332605Y600399D01*
X-332606Y600398D01*
X-332607Y600397D01*
X-332696Y600255D01*
X-337184Y590936D01*
X-337184Y590934D01*
X-337185Y590933D01*
X-337240Y590775D01*
X-339542Y580691D01*
X-339544Y580659D01*
X-339560Y580564D01*
X-339850Y575393D01*
X-339848Y575376D01*
X-339851Y575350D01*
X-339851Y3810D01*
X-339848Y3790D01*
X-339850Y3771D01*
X-339828Y3669D01*
X-339812Y3567D01*
X-339802Y3550D01*
X-339798Y3530D01*
X-339745Y3441D01*
X-339696Y3350D01*
X-339682Y3336D01*
X-339672Y3319D01*
X-339593Y3252D01*
X-339518Y3180D01*
X-339500Y3172D01*
X-339485Y3159D01*
X-339389Y3120D01*
X-339295Y3077D01*
X-339275Y3075D01*
X-339257Y3067D01*
X-339090Y3049D01*
X338890Y3049D01*
X338910Y3052D01*
G37*
%LPC*%
G36*
X15658Y135381D02*
X15658Y135381D01*
X11737Y137005D01*
X8735Y140007D01*
X7111Y143928D01*
X7111Y148172D01*
X8735Y152093D01*
X11737Y155095D01*
X15658Y156719D01*
X35142Y156719D01*
X39063Y155095D01*
X41788Y152370D01*
X41862Y152317D01*
X41932Y152257D01*
X41962Y152245D01*
X41988Y152226D01*
X42075Y152199D01*
X42160Y152165D01*
X42201Y152161D01*
X42223Y152154D01*
X42255Y152155D01*
X42326Y152147D01*
X150097Y152147D01*
X150187Y152161D01*
X150278Y152169D01*
X150308Y152181D01*
X150340Y152186D01*
X150421Y152229D01*
X150505Y152265D01*
X150537Y152291D01*
X150557Y152302D01*
X150580Y152325D01*
X150635Y152370D01*
X161689Y163423D01*
X161692Y163425D01*
X161735Y163441D01*
X161796Y163489D01*
X161862Y163530D01*
X161891Y163566D01*
X161927Y163594D01*
X161969Y163660D01*
X162019Y163720D01*
X162035Y163763D01*
X162060Y163801D01*
X162079Y163877D01*
X162107Y163949D01*
X162109Y163995D01*
X162120Y164040D01*
X162114Y164117D01*
X162117Y164195D01*
X162104Y164239D01*
X162101Y164285D01*
X162070Y164357D01*
X162049Y164431D01*
X162023Y164469D01*
X162005Y164511D01*
X161919Y164618D01*
X161909Y164633D01*
X161904Y164636D01*
X161900Y164642D01*
X161135Y165407D01*
X159511Y169328D01*
X159511Y173572D01*
X159968Y174675D01*
X159990Y174770D01*
X160019Y174863D01*
X160018Y174889D01*
X160024Y174914D01*
X160015Y175011D01*
X160012Y175108D01*
X160004Y175133D01*
X160001Y175159D01*
X159961Y175248D01*
X159928Y175339D01*
X159912Y175360D01*
X159901Y175384D01*
X159835Y175456D01*
X159774Y175532D01*
X159752Y175546D01*
X159735Y175565D01*
X159649Y175612D01*
X159567Y175665D01*
X159542Y175671D01*
X159519Y175684D01*
X159423Y175701D01*
X159329Y175725D01*
X159303Y175723D01*
X159277Y175727D01*
X159181Y175713D01*
X159084Y175705D01*
X159060Y175695D01*
X159034Y175691D01*
X158947Y175647D01*
X158857Y175609D01*
X158832Y175589D01*
X158814Y175580D01*
X158791Y175556D01*
X158726Y175504D01*
X149504Y166281D01*
X147263Y165353D01*
X42326Y165353D01*
X42236Y165339D01*
X42145Y165331D01*
X42116Y165319D01*
X42084Y165314D01*
X42003Y165271D01*
X41919Y165235D01*
X41887Y165209D01*
X41866Y165198D01*
X41844Y165175D01*
X41788Y165130D01*
X39063Y162405D01*
X35142Y160781D01*
X15658Y160781D01*
X11737Y162405D01*
X8735Y165407D01*
X7111Y169328D01*
X7111Y173572D01*
X8735Y177493D01*
X11737Y180495D01*
X15658Y182119D01*
X35142Y182119D01*
X39063Y180495D01*
X41788Y177770D01*
X41862Y177717D01*
X41932Y177657D01*
X41962Y177645D01*
X41988Y177626D01*
X42075Y177599D01*
X42160Y177565D01*
X42201Y177561D01*
X42223Y177554D01*
X42255Y177555D01*
X42326Y177547D01*
X143209Y177547D01*
X143299Y177561D01*
X143390Y177569D01*
X143420Y177581D01*
X143452Y177586D01*
X143533Y177629D01*
X143617Y177665D01*
X143649Y177691D01*
X143669Y177702D01*
X143692Y177725D01*
X143748Y177770D01*
X155296Y189319D01*
X157537Y190247D01*
X160228Y190247D01*
X160273Y190254D01*
X160319Y190252D01*
X160394Y190274D01*
X160471Y190286D01*
X160511Y190308D01*
X160555Y190321D01*
X160619Y190365D01*
X160688Y190402D01*
X160720Y190435D01*
X160758Y190461D01*
X160804Y190524D01*
X160858Y190580D01*
X160877Y190622D01*
X160904Y190658D01*
X160928Y190732D01*
X160961Y190803D01*
X160966Y190849D01*
X160981Y190892D01*
X160980Y190970D01*
X160988Y191047D01*
X160979Y191092D01*
X160978Y191138D01*
X160940Y191270D01*
X160936Y191288D01*
X160934Y191292D01*
X160931Y191299D01*
X159511Y194728D01*
X159511Y198972D01*
X161135Y202893D01*
X164137Y205895D01*
X168058Y207519D01*
X187542Y207519D01*
X191463Y205895D01*
X194188Y203170D01*
X194262Y203117D01*
X194332Y203057D01*
X194362Y203045D01*
X194388Y203026D01*
X194475Y202999D01*
X194560Y202965D01*
X194601Y202961D01*
X194623Y202954D01*
X194655Y202955D01*
X194726Y202947D01*
X298837Y202947D01*
X298952Y202966D01*
X299068Y202983D01*
X299074Y202985D01*
X299080Y202986D01*
X299182Y203041D01*
X299287Y203094D01*
X299292Y203099D01*
X299297Y203102D01*
X299377Y203186D01*
X299459Y203270D01*
X299463Y203276D01*
X299467Y203280D01*
X299474Y203297D01*
X299540Y203417D01*
X300835Y206543D01*
X303837Y209545D01*
X307758Y211169D01*
X327242Y211169D01*
X331163Y209545D01*
X334165Y206543D01*
X335789Y202622D01*
X335789Y198378D01*
X334165Y194457D01*
X331163Y191455D01*
X327242Y189831D01*
X307758Y189831D01*
X305672Y190695D01*
X305608Y190710D01*
X305547Y190735D01*
X305464Y190744D01*
X305432Y190751D01*
X305413Y190750D01*
X305380Y190753D01*
X200667Y190753D01*
X200571Y190738D01*
X200474Y190728D01*
X200450Y190718D01*
X200424Y190714D01*
X200338Y190668D01*
X200249Y190628D01*
X200230Y190611D01*
X200207Y190598D01*
X200140Y190528D01*
X200068Y190462D01*
X200055Y190439D01*
X200037Y190420D01*
X199996Y190332D01*
X199949Y190246D01*
X199945Y190221D01*
X199934Y190197D01*
X199923Y190100D01*
X199906Y190004D01*
X199910Y189978D01*
X199907Y189953D01*
X199927Y189857D01*
X199942Y189761D01*
X199953Y189738D01*
X199959Y189712D01*
X200009Y189628D01*
X200053Y189542D01*
X200072Y189523D01*
X200085Y189501D01*
X200159Y189438D01*
X200229Y189369D01*
X200257Y189354D01*
X200272Y189341D01*
X200287Y189335D01*
X208202Y181420D01*
X208276Y181367D01*
X208346Y181307D01*
X208376Y181295D01*
X208402Y181276D01*
X208489Y181249D01*
X208574Y181215D01*
X208615Y181211D01*
X208637Y181204D01*
X208669Y181205D01*
X208741Y181197D01*
X300574Y181197D01*
X300664Y181211D01*
X300755Y181219D01*
X300784Y181231D01*
X300816Y181236D01*
X300897Y181279D01*
X300981Y181315D01*
X301013Y181341D01*
X301034Y181352D01*
X301056Y181375D01*
X301112Y181420D01*
X303837Y184145D01*
X307758Y185769D01*
X327242Y185769D01*
X331163Y184145D01*
X334165Y181143D01*
X335789Y177222D01*
X335789Y172978D01*
X334165Y169057D01*
X331163Y166055D01*
X327242Y164431D01*
X307758Y164431D01*
X303837Y166055D01*
X301112Y168780D01*
X301038Y168833D01*
X300968Y168893D01*
X300938Y168905D01*
X300912Y168924D01*
X300825Y168951D01*
X300740Y168985D01*
X300699Y168989D01*
X300677Y168996D01*
X300645Y168995D01*
X300574Y169003D01*
X204687Y169003D01*
X202446Y169931D01*
X196874Y175504D01*
X196795Y175561D01*
X196720Y175623D01*
X196695Y175633D01*
X196674Y175648D01*
X196581Y175677D01*
X196490Y175711D01*
X196464Y175713D01*
X196439Y175720D01*
X196341Y175718D01*
X196244Y175722D01*
X196219Y175715D01*
X196193Y175714D01*
X196101Y175680D01*
X196008Y175653D01*
X195986Y175638D01*
X195962Y175629D01*
X195886Y175569D01*
X195806Y175513D01*
X195790Y175492D01*
X195770Y175476D01*
X195717Y175394D01*
X195659Y175316D01*
X195651Y175291D01*
X195637Y175269D01*
X195613Y175174D01*
X195583Y175082D01*
X195583Y175056D01*
X195577Y175030D01*
X195584Y174933D01*
X195585Y174836D01*
X195594Y174804D01*
X195596Y174785D01*
X195609Y174755D01*
X195632Y174675D01*
X196089Y173572D01*
X196089Y169328D01*
X194465Y165407D01*
X193700Y164642D01*
X193673Y164605D01*
X193640Y164574D01*
X193602Y164506D01*
X193557Y164443D01*
X193543Y164399D01*
X193521Y164358D01*
X193507Y164282D01*
X193484Y164208D01*
X193486Y164162D01*
X193477Y164116D01*
X193489Y164039D01*
X193491Y163962D01*
X193507Y163918D01*
X193513Y163873D01*
X193548Y163804D01*
X193575Y163731D01*
X193604Y163695D01*
X193625Y163654D01*
X193680Y163599D01*
X193729Y163539D01*
X193768Y163514D01*
X193800Y163482D01*
X193917Y163418D01*
X201315Y156020D01*
X201388Y155967D01*
X201458Y155907D01*
X201488Y155895D01*
X201514Y155876D01*
X201601Y155849D01*
X201686Y155815D01*
X201727Y155811D01*
X201749Y155804D01*
X201782Y155805D01*
X201853Y155797D01*
X300574Y155797D01*
X300664Y155811D01*
X300755Y155819D01*
X300784Y155831D01*
X300816Y155836D01*
X300897Y155879D01*
X300981Y155915D01*
X301013Y155941D01*
X301034Y155952D01*
X301056Y155975D01*
X301112Y156020D01*
X303837Y158745D01*
X307758Y160369D01*
X327242Y160369D01*
X331163Y158745D01*
X334165Y155743D01*
X335789Y151822D01*
X335789Y147578D01*
X334165Y143657D01*
X331163Y140655D01*
X327242Y139031D01*
X307758Y139031D01*
X303837Y140655D01*
X301112Y143380D01*
X301038Y143433D01*
X300968Y143493D01*
X300938Y143505D01*
X300912Y143524D01*
X300825Y143551D01*
X300740Y143585D01*
X300699Y143589D01*
X300677Y143596D01*
X300645Y143595D01*
X300574Y143603D01*
X197799Y143603D01*
X196928Y143964D01*
X196908Y143969D01*
X196891Y143978D01*
X196789Y143997D01*
X196688Y144020D01*
X196669Y144019D01*
X196649Y144022D01*
X196546Y144007D01*
X196443Y143997D01*
X196425Y143989D01*
X196406Y143986D01*
X196313Y143939D01*
X196219Y143897D01*
X196204Y143884D01*
X196186Y143875D01*
X196114Y143801D01*
X196038Y143731D01*
X196028Y143714D01*
X196014Y143699D01*
X195933Y143552D01*
X194465Y140007D01*
X191463Y137005D01*
X187542Y135381D01*
X168058Y135381D01*
X164137Y137005D01*
X161135Y140007D01*
X159926Y142927D01*
X159902Y142966D01*
X159886Y143009D01*
X159837Y143070D01*
X159796Y143136D01*
X159761Y143166D01*
X159732Y143201D01*
X159667Y143243D01*
X159607Y143293D01*
X159564Y143310D01*
X159525Y143334D01*
X159450Y143353D01*
X159377Y143381D01*
X159331Y143383D01*
X159287Y143394D01*
X159209Y143388D01*
X159131Y143392D01*
X159087Y143379D01*
X159041Y143375D01*
X158970Y143345D01*
X158895Y143323D01*
X158857Y143297D01*
X158815Y143279D01*
X158708Y143194D01*
X158693Y143183D01*
X158690Y143179D01*
X158684Y143174D01*
X156391Y140881D01*
X154151Y139953D01*
X42326Y139953D01*
X42236Y139939D01*
X42145Y139931D01*
X42116Y139919D01*
X42084Y139914D01*
X42003Y139871D01*
X41919Y139835D01*
X41887Y139809D01*
X41866Y139798D01*
X41844Y139775D01*
X41788Y139730D01*
X39063Y137005D01*
X35142Y135381D01*
X15658Y135381D01*
G37*
%LPD*%
%LPC*%
G36*
X15658Y8381D02*
X15658Y8381D01*
X11737Y10005D01*
X8735Y13007D01*
X7111Y16928D01*
X7111Y21172D01*
X8321Y24093D01*
X8330Y24133D01*
X8342Y24159D01*
X8343Y24162D01*
X8351Y24179D01*
X8359Y24256D01*
X8377Y24332D01*
X8373Y24378D01*
X8378Y24423D01*
X8361Y24500D01*
X8354Y24577D01*
X8335Y24619D01*
X8326Y24664D01*
X8286Y24731D01*
X8254Y24802D01*
X8223Y24836D01*
X8199Y24875D01*
X8140Y24926D01*
X8088Y24983D01*
X8047Y25005D01*
X8013Y25035D01*
X7940Y25064D01*
X7872Y25101D01*
X7827Y25110D01*
X7784Y25127D01*
X7648Y25142D01*
X7630Y25145D01*
X7625Y25144D01*
X7618Y25145D01*
X-83255Y25145D01*
X-85496Y26073D01*
X-119469Y60046D01*
X-120397Y62287D01*
X-120397Y124213D01*
X-120411Y124303D01*
X-120419Y124394D01*
X-120431Y124424D01*
X-120436Y124456D01*
X-120479Y124537D01*
X-120515Y124621D01*
X-120541Y124653D01*
X-120552Y124673D01*
X-120575Y124696D01*
X-120620Y124752D01*
X-123243Y127375D01*
X-124849Y131252D01*
X-124849Y135448D01*
X-123243Y139325D01*
X-120275Y142293D01*
X-116398Y143899D01*
X-112202Y143899D01*
X-108325Y142293D01*
X-105357Y139325D01*
X-103751Y135448D01*
X-103751Y131252D01*
X-105357Y127375D01*
X-107980Y124752D01*
X-108033Y124678D01*
X-108093Y124608D01*
X-108105Y124578D01*
X-108124Y124552D01*
X-108151Y124465D01*
X-108185Y124380D01*
X-108189Y124339D01*
X-108196Y124317D01*
X-108195Y124285D01*
X-108203Y124213D01*
X-108203Y66341D01*
X-108189Y66251D01*
X-108181Y66160D01*
X-108169Y66130D01*
X-108164Y66098D01*
X-108121Y66017D01*
X-108085Y65933D01*
X-108059Y65901D01*
X-108048Y65881D01*
X-108025Y65858D01*
X-107980Y65802D01*
X-79740Y37562D01*
X-79666Y37509D01*
X-79596Y37449D01*
X-79566Y37437D01*
X-79540Y37418D01*
X-79453Y37391D01*
X-79368Y37357D01*
X-79327Y37353D01*
X-79305Y37346D01*
X-79273Y37347D01*
X-79201Y37339D01*
X8039Y37339D01*
X8084Y37346D01*
X8130Y37344D01*
X8205Y37366D01*
X8281Y37378D01*
X8322Y37400D01*
X8366Y37413D01*
X8430Y37457D01*
X8499Y37494D01*
X8530Y37527D01*
X8568Y37553D01*
X8614Y37616D01*
X8668Y37672D01*
X8687Y37714D01*
X8715Y37750D01*
X8739Y37824D01*
X8772Y37895D01*
X8777Y37941D01*
X8791Y37984D01*
X8790Y38062D01*
X8799Y38139D01*
X8789Y38184D01*
X8789Y38230D01*
X8750Y38362D01*
X8747Y38380D01*
X8744Y38384D01*
X8742Y38391D01*
X7111Y42328D01*
X7111Y46572D01*
X8735Y50493D01*
X11737Y53495D01*
X15658Y55119D01*
X35142Y55119D01*
X39063Y53495D01*
X42065Y50493D01*
X43689Y46572D01*
X43689Y42328D01*
X42058Y38391D01*
X42048Y38347D01*
X42028Y38305D01*
X42020Y38228D01*
X42002Y38152D01*
X42006Y38106D01*
X42001Y38061D01*
X42018Y37984D01*
X42025Y37907D01*
X42044Y37865D01*
X42053Y37820D01*
X42093Y37753D01*
X42125Y37682D01*
X42156Y37648D01*
X42180Y37609D01*
X42239Y37558D01*
X42291Y37501D01*
X42332Y37479D01*
X42367Y37449D01*
X42439Y37420D01*
X42507Y37383D01*
X42552Y37374D01*
X42595Y37357D01*
X42731Y37342D01*
X42749Y37339D01*
X42754Y37340D01*
X42761Y37339D01*
X130001Y37339D01*
X130091Y37353D01*
X130182Y37361D01*
X130212Y37373D01*
X130244Y37378D01*
X130325Y37421D01*
X130409Y37457D01*
X130441Y37483D01*
X130461Y37494D01*
X130484Y37517D01*
X130540Y37562D01*
X142596Y49619D01*
X144837Y50547D01*
X160874Y50547D01*
X160964Y50561D01*
X161055Y50569D01*
X161084Y50581D01*
X161116Y50586D01*
X161197Y50629D01*
X161281Y50665D01*
X161313Y50691D01*
X161334Y50702D01*
X161356Y50725D01*
X161412Y50770D01*
X164137Y53495D01*
X168058Y55119D01*
X187542Y55119D01*
X191463Y53495D01*
X194465Y50493D01*
X196089Y46572D01*
X196089Y42328D01*
X194465Y38407D01*
X191463Y35405D01*
X187542Y33781D01*
X168058Y33781D01*
X164137Y35405D01*
X161412Y38130D01*
X161338Y38183D01*
X161268Y38243D01*
X161238Y38255D01*
X161212Y38274D01*
X161125Y38301D01*
X161040Y38335D01*
X160999Y38339D01*
X160977Y38346D01*
X160945Y38345D01*
X160874Y38353D01*
X148891Y38353D01*
X148801Y38339D01*
X148710Y38331D01*
X148680Y38319D01*
X148648Y38314D01*
X148567Y38271D01*
X148483Y38235D01*
X148451Y38209D01*
X148431Y38198D01*
X148408Y38175D01*
X148352Y38130D01*
X136296Y26073D01*
X134055Y25145D01*
X43182Y25145D01*
X43137Y25138D01*
X43091Y25140D01*
X43016Y25118D01*
X42940Y25106D01*
X42899Y25084D01*
X42855Y25071D01*
X42791Y25027D01*
X42722Y24990D01*
X42691Y24957D01*
X42653Y24931D01*
X42606Y24868D01*
X42553Y24812D01*
X42533Y24770D01*
X42506Y24734D01*
X42482Y24660D01*
X42449Y24589D01*
X42444Y24543D01*
X42430Y24500D01*
X42431Y24422D01*
X42422Y24345D01*
X42432Y24300D01*
X42432Y24254D01*
X42470Y24122D01*
X42474Y24104D01*
X42477Y24100D01*
X42479Y24093D01*
X43689Y21172D01*
X43689Y16928D01*
X42065Y13007D01*
X39063Y10005D01*
X35142Y8381D01*
X15658Y8381D01*
G37*
%LPD*%
%LPC*%
G36*
X-27498Y46601D02*
X-27498Y46601D01*
X-31375Y48207D01*
X-34343Y51175D01*
X-35949Y55052D01*
X-35949Y59248D01*
X-34343Y63125D01*
X-31720Y65748D01*
X-31667Y65822D01*
X-31607Y65892D01*
X-31595Y65922D01*
X-31576Y65948D01*
X-31549Y66035D01*
X-31515Y66120D01*
X-31511Y66161D01*
X-31504Y66183D01*
X-31505Y66215D01*
X-31497Y66287D01*
X-31497Y384563D01*
X-31511Y384653D01*
X-31519Y384744D01*
X-31531Y384774D01*
X-31536Y384806D01*
X-31579Y384887D01*
X-31615Y384971D01*
X-31641Y385003D01*
X-31652Y385023D01*
X-31675Y385046D01*
X-31720Y385102D01*
X-34343Y387725D01*
X-35949Y391602D01*
X-35949Y395798D01*
X-34343Y399675D01*
X-31375Y402643D01*
X-27498Y404249D01*
X-23302Y404249D01*
X-19425Y402643D01*
X-16457Y399675D01*
X-14851Y395798D01*
X-14851Y391602D01*
X-16457Y387725D01*
X-19080Y385102D01*
X-19133Y385028D01*
X-19193Y384958D01*
X-19205Y384928D01*
X-19224Y384902D01*
X-19251Y384815D01*
X-19285Y384730D01*
X-19289Y384689D01*
X-19296Y384667D01*
X-19295Y384635D01*
X-19303Y384563D01*
X-19303Y66287D01*
X-19289Y66197D01*
X-19281Y66106D01*
X-19269Y66076D01*
X-19264Y66044D01*
X-19221Y65963D01*
X-19185Y65879D01*
X-19159Y65847D01*
X-19148Y65827D01*
X-19125Y65804D01*
X-19080Y65748D01*
X-16457Y63125D01*
X-14851Y59248D01*
X-14851Y55052D01*
X-16457Y51175D01*
X-19425Y48207D01*
X-23302Y46601D01*
X-27498Y46601D01*
G37*
%LPD*%
%LPC*%
G36*
X168058Y211581D02*
X168058Y211581D01*
X164137Y213205D01*
X161135Y216207D01*
X159511Y220128D01*
X159511Y224372D01*
X161135Y228293D01*
X164137Y231295D01*
X168058Y232919D01*
X187542Y232919D01*
X191463Y231295D01*
X194188Y228570D01*
X194262Y228517D01*
X194332Y228457D01*
X194362Y228445D01*
X194388Y228426D01*
X194475Y228399D01*
X194560Y228365D01*
X194601Y228361D01*
X194623Y228354D01*
X194655Y228355D01*
X194726Y228347D01*
X238459Y228347D01*
X238549Y228361D01*
X238640Y228369D01*
X238670Y228381D01*
X238702Y228386D01*
X238783Y228429D01*
X238867Y228465D01*
X238899Y228491D01*
X238919Y228502D01*
X238942Y228525D01*
X238998Y228570D01*
X266896Y256469D01*
X269137Y257397D01*
X300574Y257397D01*
X300664Y257411D01*
X300755Y257419D01*
X300784Y257431D01*
X300816Y257436D01*
X300897Y257479D01*
X300981Y257515D01*
X301013Y257541D01*
X301034Y257552D01*
X301056Y257575D01*
X301112Y257620D01*
X303837Y260345D01*
X307758Y261969D01*
X327242Y261969D01*
X331163Y260345D01*
X334165Y257343D01*
X335789Y253422D01*
X335789Y249178D01*
X334165Y245257D01*
X331163Y242255D01*
X327242Y240631D01*
X307758Y240631D01*
X303837Y242255D01*
X301112Y244980D01*
X301038Y245033D01*
X300968Y245093D01*
X300938Y245105D01*
X300912Y245124D01*
X300825Y245151D01*
X300740Y245185D01*
X300699Y245189D01*
X300677Y245196D01*
X300645Y245195D01*
X300574Y245203D01*
X273191Y245203D01*
X273101Y245189D01*
X273010Y245181D01*
X272980Y245169D01*
X272948Y245164D01*
X272867Y245121D01*
X272783Y245085D01*
X272751Y245059D01*
X272731Y245048D01*
X272708Y245025D01*
X272652Y244980D01*
X244754Y217081D01*
X242513Y216153D01*
X194726Y216153D01*
X194636Y216139D01*
X194545Y216131D01*
X194516Y216119D01*
X194484Y216114D01*
X194403Y216071D01*
X194319Y216035D01*
X194287Y216009D01*
X194266Y215998D01*
X194244Y215975D01*
X194188Y215930D01*
X191463Y213205D01*
X187542Y211581D01*
X168058Y211581D01*
G37*
%LPD*%
%LPC*%
G36*
X-303690Y561451D02*
X-303690Y561451D01*
X-310507Y564275D01*
X-315725Y569493D01*
X-318549Y576310D01*
X-318549Y583690D01*
X-315725Y590507D01*
X-310507Y595725D01*
X-303690Y598549D01*
X-296310Y598549D01*
X-289493Y595725D01*
X-284275Y590507D01*
X-281451Y583690D01*
X-281451Y576310D01*
X-284275Y569493D01*
X-289493Y564275D01*
X-296310Y561451D01*
X-303690Y561451D01*
G37*
%LPD*%
%LPC*%
G36*
X-303690Y21451D02*
X-303690Y21451D01*
X-310507Y24275D01*
X-315725Y29493D01*
X-318549Y36310D01*
X-318549Y43690D01*
X-315725Y50507D01*
X-310507Y55725D01*
X-303690Y58549D01*
X-296310Y58549D01*
X-289493Y55725D01*
X-284275Y50507D01*
X-281451Y43690D01*
X-281451Y36310D01*
X-284275Y29493D01*
X-289493Y24275D01*
X-296310Y21451D01*
X-303690Y21451D01*
G37*
%LPD*%
%LPC*%
G36*
X296310Y21451D02*
X296310Y21451D01*
X289493Y24275D01*
X284275Y29493D01*
X281451Y36310D01*
X281451Y43690D01*
X284275Y50507D01*
X289493Y55725D01*
X296310Y58549D01*
X303690Y58549D01*
X310507Y55725D01*
X315725Y50507D01*
X318549Y43690D01*
X318549Y36310D01*
X315725Y29493D01*
X310507Y24275D01*
X303690Y21451D01*
X296310Y21451D01*
G37*
%LPD*%
%LPC*%
G36*
X296310Y561451D02*
X296310Y561451D01*
X289493Y564275D01*
X284275Y569493D01*
X281451Y576310D01*
X281451Y583690D01*
X284275Y590507D01*
X289493Y595725D01*
X296310Y598549D01*
X303690Y598549D01*
X310507Y595725D01*
X315725Y590507D01*
X318549Y583690D01*
X318549Y576310D01*
X315725Y569493D01*
X310507Y564275D01*
X303690Y561451D01*
X296310Y561451D01*
G37*
%LPD*%
%LPC*%
G36*
X168058Y592581D02*
X168058Y592581D01*
X164137Y594205D01*
X161135Y597207D01*
X159511Y601128D01*
X159511Y605372D01*
X161135Y609293D01*
X164137Y612295D01*
X168058Y613919D01*
X187542Y613919D01*
X191463Y612295D01*
X194465Y609293D01*
X196089Y605372D01*
X196089Y601128D01*
X194465Y597207D01*
X191463Y594205D01*
X187542Y592581D01*
X168058Y592581D01*
G37*
%LPD*%
%LPC*%
G36*
X15658Y186181D02*
X15658Y186181D01*
X11737Y187805D01*
X8735Y190807D01*
X7111Y194728D01*
X7111Y198972D01*
X8735Y202893D01*
X11737Y205895D01*
X15658Y207519D01*
X35142Y207519D01*
X39063Y205895D01*
X42065Y202893D01*
X43689Y198972D01*
X43689Y194728D01*
X42065Y190807D01*
X39063Y187805D01*
X35142Y186181D01*
X15658Y186181D01*
G37*
%LPD*%
%LPC*%
G36*
X-327242Y164431D02*
X-327242Y164431D01*
X-331163Y166055D01*
X-334165Y169057D01*
X-335789Y172978D01*
X-335789Y177222D01*
X-334165Y181143D01*
X-331163Y184145D01*
X-327242Y185769D01*
X-307758Y185769D01*
X-303837Y184145D01*
X-300835Y181143D01*
X-299211Y177222D01*
X-299211Y172978D01*
X-300835Y169057D01*
X-303837Y166055D01*
X-307758Y164431D01*
X-327242Y164431D01*
G37*
%LPD*%
%LPC*%
G36*
X-327242Y139031D02*
X-327242Y139031D01*
X-331163Y140655D01*
X-334165Y143657D01*
X-335789Y147578D01*
X-335789Y151822D01*
X-334165Y155743D01*
X-331163Y158745D01*
X-327242Y160369D01*
X-307758Y160369D01*
X-303837Y158745D01*
X-300835Y155743D01*
X-299211Y151822D01*
X-299211Y147578D01*
X-300835Y143657D01*
X-303837Y140655D01*
X-307758Y139031D01*
X-327242Y139031D01*
G37*
%LPD*%
%LPC*%
G36*
X168058Y8381D02*
X168058Y8381D01*
X164137Y10005D01*
X161135Y13007D01*
X159511Y16928D01*
X159511Y21172D01*
X161135Y25093D01*
X164137Y28095D01*
X168058Y29719D01*
X187542Y29719D01*
X191463Y28095D01*
X194465Y25093D01*
X196089Y21172D01*
X196089Y16928D01*
X194465Y13007D01*
X191463Y10005D01*
X187542Y8381D01*
X168058Y8381D01*
G37*
%LPD*%
%LPC*%
G36*
X168058Y109981D02*
X168058Y109981D01*
X164137Y111605D01*
X161135Y114607D01*
X159511Y118528D01*
X159511Y122772D01*
X161135Y126693D01*
X164137Y129695D01*
X168058Y131319D01*
X187542Y131319D01*
X191463Y129695D01*
X194465Y126693D01*
X196089Y122772D01*
X196089Y118528D01*
X194465Y114607D01*
X191463Y111605D01*
X187542Y109981D01*
X168058Y109981D01*
G37*
%LPD*%
%LPC*%
G36*
X15658Y109981D02*
X15658Y109981D01*
X11737Y111605D01*
X8735Y114607D01*
X7111Y118528D01*
X7111Y122772D01*
X8735Y126693D01*
X11737Y129695D01*
X15658Y131319D01*
X35142Y131319D01*
X39063Y129695D01*
X42065Y126693D01*
X43689Y122772D01*
X43689Y118528D01*
X42065Y114607D01*
X39063Y111605D01*
X35142Y109981D01*
X15658Y109981D01*
G37*
%LPD*%
%LPC*%
G36*
X15658Y567181D02*
X15658Y567181D01*
X11737Y568805D01*
X8735Y571807D01*
X7111Y575728D01*
X7111Y579972D01*
X8735Y583893D01*
X11737Y586895D01*
X15658Y588519D01*
X35142Y588519D01*
X39063Y586895D01*
X42065Y583893D01*
X43689Y579972D01*
X43689Y575728D01*
X42065Y571807D01*
X39063Y568805D01*
X35142Y567181D01*
X15658Y567181D01*
G37*
%LPD*%
%LPC*%
G36*
X307758Y88231D02*
X307758Y88231D01*
X303837Y89855D01*
X300835Y92857D01*
X299211Y96778D01*
X299211Y101022D01*
X300835Y104943D01*
X303837Y107945D01*
X307758Y109569D01*
X327242Y109569D01*
X331163Y107945D01*
X334165Y104943D01*
X335789Y101022D01*
X335789Y96778D01*
X334165Y92857D01*
X331163Y89855D01*
X327242Y88231D01*
X307758Y88231D01*
G37*
%LPD*%
%LPC*%
G36*
X168058Y84581D02*
X168058Y84581D01*
X164137Y86205D01*
X161135Y89207D01*
X159511Y93128D01*
X159511Y97372D01*
X161135Y101293D01*
X164137Y104295D01*
X168058Y105919D01*
X187542Y105919D01*
X191463Y104295D01*
X194465Y101293D01*
X196089Y97372D01*
X196089Y93128D01*
X194465Y89207D01*
X191463Y86205D01*
X187542Y84581D01*
X168058Y84581D01*
G37*
%LPD*%
%LPC*%
G36*
X15658Y84581D02*
X15658Y84581D01*
X11737Y86205D01*
X8735Y89207D01*
X7111Y93128D01*
X7111Y97372D01*
X8735Y101293D01*
X11737Y104295D01*
X15658Y105919D01*
X35142Y105919D01*
X39063Y104295D01*
X42065Y101293D01*
X43689Y97372D01*
X43689Y93128D01*
X42065Y89207D01*
X39063Y86205D01*
X35142Y84581D01*
X15658Y84581D01*
G37*
%LPD*%
%LPC*%
G36*
X168058Y59181D02*
X168058Y59181D01*
X164137Y60805D01*
X161135Y63807D01*
X159511Y67728D01*
X159511Y71972D01*
X161135Y75893D01*
X164137Y78895D01*
X168058Y80519D01*
X187542Y80519D01*
X191463Y78895D01*
X194465Y75893D01*
X196089Y71972D01*
X196089Y67728D01*
X194465Y63807D01*
X191463Y60805D01*
X187542Y59181D01*
X168058Y59181D01*
G37*
%LPD*%
%LPC*%
G36*
X15658Y59181D02*
X15658Y59181D01*
X11737Y60805D01*
X8735Y63807D01*
X7111Y67728D01*
X7111Y71972D01*
X8735Y75893D01*
X11737Y78895D01*
X15658Y80519D01*
X35142Y80519D01*
X39063Y78895D01*
X42065Y75893D01*
X43689Y71972D01*
X43689Y67728D01*
X42065Y63807D01*
X39063Y60805D01*
X35142Y59181D01*
X15658Y59181D01*
G37*
%LPD*%
%LPC*%
G36*
X168058Y541781D02*
X168058Y541781D01*
X164137Y543405D01*
X161135Y546407D01*
X159511Y550328D01*
X159511Y554572D01*
X161135Y558493D01*
X164137Y561495D01*
X168058Y563119D01*
X187542Y563119D01*
X191463Y561495D01*
X194465Y558493D01*
X196089Y554572D01*
X196089Y550328D01*
X194465Y546407D01*
X191463Y543405D01*
X187542Y541781D01*
X168058Y541781D01*
G37*
%LPD*%
%LPC*%
G36*
X15658Y541781D02*
X15658Y541781D01*
X11737Y543405D01*
X8735Y546407D01*
X7111Y550328D01*
X7111Y554572D01*
X8735Y558493D01*
X11737Y561495D01*
X15658Y563119D01*
X35142Y563119D01*
X39063Y561495D01*
X42065Y558493D01*
X43689Y554572D01*
X43689Y550328D01*
X42065Y546407D01*
X39063Y543405D01*
X35142Y541781D01*
X15658Y541781D01*
G37*
%LPD*%
%LPC*%
G36*
X168058Y516381D02*
X168058Y516381D01*
X164137Y518005D01*
X161135Y521007D01*
X159511Y524928D01*
X159511Y529172D01*
X161135Y533093D01*
X164137Y536095D01*
X168058Y537719D01*
X187542Y537719D01*
X191463Y536095D01*
X194465Y533093D01*
X196089Y529172D01*
X196089Y524928D01*
X194465Y521007D01*
X191463Y518005D01*
X187542Y516381D01*
X168058Y516381D01*
G37*
%LPD*%
%LPC*%
G36*
X15658Y516381D02*
X15658Y516381D01*
X11737Y518005D01*
X8735Y521007D01*
X7111Y524928D01*
X7111Y529172D01*
X8735Y533093D01*
X11737Y536095D01*
X15658Y537719D01*
X35142Y537719D01*
X39063Y536095D01*
X42065Y533093D01*
X43689Y529172D01*
X43689Y524928D01*
X42065Y521007D01*
X39063Y518005D01*
X35142Y516381D01*
X15658Y516381D01*
G37*
%LPD*%
%LPC*%
G36*
X15658Y490981D02*
X15658Y490981D01*
X11737Y492605D01*
X8735Y495607D01*
X7111Y499528D01*
X7111Y503772D01*
X8735Y507693D01*
X11737Y510695D01*
X15658Y512319D01*
X35142Y512319D01*
X39063Y510695D01*
X42065Y507693D01*
X43689Y503772D01*
X43689Y499528D01*
X42065Y495607D01*
X39063Y492605D01*
X35142Y490981D01*
X15658Y490981D01*
G37*
%LPD*%
%LPC*%
G36*
X168058Y490981D02*
X168058Y490981D01*
X164137Y492605D01*
X161135Y495607D01*
X159511Y499528D01*
X159511Y503772D01*
X161135Y507693D01*
X164137Y510695D01*
X168058Y512319D01*
X187542Y512319D01*
X191463Y510695D01*
X194465Y507693D01*
X196089Y503772D01*
X196089Y499528D01*
X194465Y495607D01*
X191463Y492605D01*
X187542Y490981D01*
X168058Y490981D01*
G37*
%LPD*%
%LPC*%
G36*
X168058Y465581D02*
X168058Y465581D01*
X164137Y467205D01*
X161135Y470207D01*
X159511Y474128D01*
X159511Y478372D01*
X161135Y482293D01*
X164137Y485295D01*
X168058Y486919D01*
X187542Y486919D01*
X191463Y485295D01*
X194465Y482293D01*
X196089Y478372D01*
X196089Y474128D01*
X194465Y470207D01*
X191463Y467205D01*
X187542Y465581D01*
X168058Y465581D01*
G37*
%LPD*%
%LPC*%
G36*
X15658Y465581D02*
X15658Y465581D01*
X11737Y467205D01*
X8735Y470207D01*
X7111Y474128D01*
X7111Y478372D01*
X8735Y482293D01*
X11737Y485295D01*
X15658Y486919D01*
X35142Y486919D01*
X39063Y485295D01*
X42065Y482293D01*
X43689Y478372D01*
X43689Y474128D01*
X42065Y470207D01*
X39063Y467205D01*
X35142Y465581D01*
X15658Y465581D01*
G37*
%LPD*%
%LPC*%
G36*
X168058Y440181D02*
X168058Y440181D01*
X164137Y441805D01*
X161135Y444807D01*
X159511Y448728D01*
X159511Y452972D01*
X161135Y456893D01*
X164137Y459895D01*
X168058Y461519D01*
X187542Y461519D01*
X191463Y459895D01*
X194465Y456893D01*
X196089Y452972D01*
X196089Y448728D01*
X194465Y444807D01*
X191463Y441805D01*
X187542Y440181D01*
X168058Y440181D01*
G37*
%LPD*%
%LPC*%
G36*
X15658Y440181D02*
X15658Y440181D01*
X11737Y441805D01*
X8735Y444807D01*
X7111Y448728D01*
X7111Y452972D01*
X8735Y456893D01*
X11737Y459895D01*
X15658Y461519D01*
X35142Y461519D01*
X39063Y459895D01*
X42065Y456893D01*
X43689Y452972D01*
X43689Y448728D01*
X42065Y444807D01*
X39063Y441805D01*
X35142Y440181D01*
X15658Y440181D01*
G37*
%LPD*%
%LPC*%
G36*
X168058Y414781D02*
X168058Y414781D01*
X164137Y416405D01*
X161135Y419407D01*
X159511Y423328D01*
X159511Y427572D01*
X161135Y431493D01*
X164137Y434495D01*
X168058Y436119D01*
X187542Y436119D01*
X191463Y434495D01*
X194465Y431493D01*
X196089Y427572D01*
X196089Y423328D01*
X194465Y419407D01*
X191463Y416405D01*
X187542Y414781D01*
X168058Y414781D01*
G37*
%LPD*%
%LPC*%
G36*
X15658Y414781D02*
X15658Y414781D01*
X11737Y416405D01*
X8735Y419407D01*
X7111Y423328D01*
X7111Y427572D01*
X8735Y431493D01*
X11737Y434495D01*
X15658Y436119D01*
X35142Y436119D01*
X39063Y434495D01*
X42065Y431493D01*
X43689Y427572D01*
X43689Y423328D01*
X42065Y419407D01*
X39063Y416405D01*
X35142Y414781D01*
X15658Y414781D01*
G37*
%LPD*%
%LPC*%
G36*
X168058Y389381D02*
X168058Y389381D01*
X164137Y391005D01*
X161135Y394007D01*
X159511Y397928D01*
X159511Y402172D01*
X161135Y406093D01*
X164137Y409095D01*
X168058Y410719D01*
X187542Y410719D01*
X191463Y409095D01*
X194465Y406093D01*
X196089Y402172D01*
X196089Y397928D01*
X194465Y394007D01*
X191463Y391005D01*
X187542Y389381D01*
X168058Y389381D01*
G37*
%LPD*%
%LPC*%
G36*
X15658Y389381D02*
X15658Y389381D01*
X11737Y391005D01*
X8735Y394007D01*
X7111Y397928D01*
X7111Y402172D01*
X8735Y406093D01*
X11737Y409095D01*
X15658Y410719D01*
X35142Y410719D01*
X39063Y409095D01*
X42065Y406093D01*
X43689Y402172D01*
X43689Y397928D01*
X42065Y394007D01*
X39063Y391005D01*
X35142Y389381D01*
X15658Y389381D01*
G37*
%LPD*%
%LPC*%
G36*
X168058Y363981D02*
X168058Y363981D01*
X164137Y365605D01*
X161135Y368607D01*
X159511Y372528D01*
X159511Y376772D01*
X161135Y380693D01*
X164137Y383695D01*
X168058Y385319D01*
X187542Y385319D01*
X191463Y383695D01*
X194465Y380693D01*
X196089Y376772D01*
X196089Y372528D01*
X194465Y368607D01*
X191463Y365605D01*
X187542Y363981D01*
X168058Y363981D01*
G37*
%LPD*%
%LPC*%
G36*
X15658Y363981D02*
X15658Y363981D01*
X11737Y365605D01*
X8735Y368607D01*
X7111Y372528D01*
X7111Y376772D01*
X8735Y380693D01*
X11737Y383695D01*
X15658Y385319D01*
X35142Y385319D01*
X39063Y383695D01*
X42065Y380693D01*
X43689Y376772D01*
X43689Y372528D01*
X42065Y368607D01*
X39063Y365605D01*
X35142Y363981D01*
X15658Y363981D01*
G37*
%LPD*%
%LPC*%
G36*
X168058Y338581D02*
X168058Y338581D01*
X164137Y340205D01*
X161135Y343207D01*
X159511Y347128D01*
X159511Y351372D01*
X161135Y355293D01*
X164137Y358295D01*
X168058Y359919D01*
X187542Y359919D01*
X191463Y358295D01*
X194465Y355293D01*
X196089Y351372D01*
X196089Y347128D01*
X194465Y343207D01*
X191463Y340205D01*
X187542Y338581D01*
X168058Y338581D01*
G37*
%LPD*%
%LPC*%
G36*
X15658Y338581D02*
X15658Y338581D01*
X11737Y340205D01*
X8735Y343207D01*
X7111Y347128D01*
X7111Y351372D01*
X8735Y355293D01*
X11737Y358295D01*
X15658Y359919D01*
X35142Y359919D01*
X39063Y358295D01*
X42065Y355293D01*
X43689Y351372D01*
X43689Y347128D01*
X42065Y343207D01*
X39063Y340205D01*
X35142Y338581D01*
X15658Y338581D01*
G37*
%LPD*%
%LPC*%
G36*
X168058Y313181D02*
X168058Y313181D01*
X164137Y314805D01*
X161135Y317807D01*
X159511Y321728D01*
X159511Y325972D01*
X161135Y329893D01*
X164137Y332895D01*
X168058Y334519D01*
X187542Y334519D01*
X191463Y332895D01*
X194465Y329893D01*
X196089Y325972D01*
X196089Y321728D01*
X194465Y317807D01*
X191463Y314805D01*
X187542Y313181D01*
X168058Y313181D01*
G37*
%LPD*%
%LPC*%
G36*
X15658Y313181D02*
X15658Y313181D01*
X11737Y314805D01*
X8735Y317807D01*
X7111Y321728D01*
X7111Y325972D01*
X8735Y329893D01*
X11737Y332895D01*
X15658Y334519D01*
X35142Y334519D01*
X39063Y332895D01*
X42065Y329893D01*
X43689Y325972D01*
X43689Y321728D01*
X42065Y317807D01*
X39063Y314805D01*
X35142Y313181D01*
X15658Y313181D01*
G37*
%LPD*%
%LPC*%
G36*
X307758Y291431D02*
X307758Y291431D01*
X303837Y293055D01*
X300835Y296057D01*
X299211Y299978D01*
X299211Y304222D01*
X300835Y308143D01*
X303837Y311145D01*
X307758Y312769D01*
X327242Y312769D01*
X331163Y311145D01*
X334165Y308143D01*
X335789Y304222D01*
X335789Y299978D01*
X334165Y296057D01*
X331163Y293055D01*
X327242Y291431D01*
X307758Y291431D01*
G37*
%LPD*%
%LPC*%
G36*
X168058Y287781D02*
X168058Y287781D01*
X164137Y289405D01*
X161135Y292407D01*
X159511Y296328D01*
X159511Y300572D01*
X161135Y304493D01*
X164137Y307495D01*
X168058Y309119D01*
X187542Y309119D01*
X191463Y307495D01*
X194465Y304493D01*
X196089Y300572D01*
X196089Y296328D01*
X194465Y292407D01*
X191463Y289405D01*
X187542Y287781D01*
X168058Y287781D01*
G37*
%LPD*%
%LPC*%
G36*
X15658Y287781D02*
X15658Y287781D01*
X11737Y289405D01*
X8735Y292407D01*
X7111Y296328D01*
X7111Y300572D01*
X8735Y304493D01*
X11737Y307495D01*
X15658Y309119D01*
X35142Y309119D01*
X39063Y307495D01*
X42065Y304493D01*
X43689Y300572D01*
X43689Y296328D01*
X42065Y292407D01*
X39063Y289405D01*
X35142Y287781D01*
X15658Y287781D01*
G37*
%LPD*%
%LPC*%
G36*
X168058Y262381D02*
X168058Y262381D01*
X164137Y264005D01*
X161135Y267007D01*
X159511Y270928D01*
X159511Y275172D01*
X161135Y279093D01*
X164137Y282095D01*
X168058Y283719D01*
X187542Y283719D01*
X191463Y282095D01*
X194465Y279093D01*
X196089Y275172D01*
X196089Y270928D01*
X194465Y267007D01*
X191463Y264005D01*
X187542Y262381D01*
X168058Y262381D01*
G37*
%LPD*%
%LPC*%
G36*
X15658Y262381D02*
X15658Y262381D01*
X11737Y264005D01*
X8735Y267007D01*
X7111Y270928D01*
X7111Y275172D01*
X8735Y279093D01*
X11737Y282095D01*
X15658Y283719D01*
X35142Y283719D01*
X39063Y282095D01*
X42065Y279093D01*
X43689Y275172D01*
X43689Y270928D01*
X42065Y267007D01*
X39063Y264005D01*
X35142Y262381D01*
X15658Y262381D01*
G37*
%LPD*%
%LPC*%
G36*
X-327242Y240631D02*
X-327242Y240631D01*
X-331163Y242255D01*
X-334165Y245257D01*
X-335789Y249178D01*
X-335789Y253422D01*
X-334165Y257343D01*
X-331163Y260345D01*
X-327242Y261969D01*
X-307758Y261969D01*
X-303837Y260345D01*
X-300835Y257343D01*
X-299211Y253422D01*
X-299211Y249178D01*
X-300835Y245257D01*
X-303837Y242255D01*
X-307758Y240631D01*
X-327242Y240631D01*
G37*
%LPD*%
%LPC*%
G36*
X15658Y236981D02*
X15658Y236981D01*
X11737Y238605D01*
X8735Y241607D01*
X7111Y245528D01*
X7111Y249772D01*
X8735Y253693D01*
X11737Y256695D01*
X15658Y258319D01*
X35142Y258319D01*
X39063Y256695D01*
X42065Y253693D01*
X43689Y249772D01*
X43689Y245528D01*
X42065Y241607D01*
X39063Y238605D01*
X35142Y236981D01*
X15658Y236981D01*
G37*
%LPD*%
%LPC*%
G36*
X307758Y113631D02*
X307758Y113631D01*
X303837Y115255D01*
X300835Y118257D01*
X299211Y122178D01*
X299211Y126422D01*
X300835Y130343D01*
X303837Y133345D01*
X307758Y134969D01*
X327242Y134969D01*
X331163Y133345D01*
X334165Y130343D01*
X335789Y126422D01*
X335789Y122178D01*
X334165Y118257D01*
X331163Y115255D01*
X327242Y113631D01*
X307758Y113631D01*
G37*
%LPD*%
%LPC*%
G36*
X307758Y215231D02*
X307758Y215231D01*
X303837Y216855D01*
X300835Y219857D01*
X299211Y223778D01*
X299211Y228022D01*
X300835Y231943D01*
X303837Y234945D01*
X307758Y236569D01*
X327242Y236569D01*
X331163Y234945D01*
X334165Y231943D01*
X335789Y228022D01*
X335789Y223778D01*
X334165Y219857D01*
X331163Y216855D01*
X327242Y215231D01*
X307758Y215231D01*
G37*
%LPD*%
%LPC*%
G36*
X-327242Y215231D02*
X-327242Y215231D01*
X-331163Y216855D01*
X-334165Y219857D01*
X-335789Y223778D01*
X-335789Y228022D01*
X-334165Y231943D01*
X-331163Y234945D01*
X-327242Y236569D01*
X-307758Y236569D01*
X-303837Y234945D01*
X-300835Y231943D01*
X-299211Y228022D01*
X-299211Y223778D01*
X-300835Y219857D01*
X-303837Y216855D01*
X-307758Y215231D01*
X-327242Y215231D01*
G37*
%LPD*%
%LPC*%
G36*
X15658Y211581D02*
X15658Y211581D01*
X11737Y213205D01*
X8735Y216207D01*
X7111Y220128D01*
X7111Y224372D01*
X8735Y228293D01*
X11737Y231295D01*
X15658Y232919D01*
X35142Y232919D01*
X39063Y231295D01*
X42065Y228293D01*
X43689Y224372D01*
X43689Y220128D01*
X42065Y216207D01*
X39063Y213205D01*
X35142Y211581D01*
X15658Y211581D01*
G37*
%LPD*%
%LPC*%
G36*
X-327242Y189831D02*
X-327242Y189831D01*
X-331163Y191455D01*
X-334165Y194457D01*
X-335789Y198378D01*
X-335789Y202622D01*
X-334165Y206543D01*
X-331163Y209545D01*
X-327242Y211169D01*
X-307758Y211169D01*
X-303837Y209545D01*
X-300835Y206543D01*
X-299211Y202622D01*
X-299211Y198378D01*
X-300835Y194457D01*
X-303837Y191455D01*
X-307758Y189831D01*
X-327242Y189831D01*
G37*
%LPD*%
%LPC*%
G36*
X239380Y584707D02*
X239380Y584707D01*
X235832Y586177D01*
X233117Y588892D01*
X231647Y592440D01*
X231647Y596280D01*
X233117Y599828D01*
X235832Y602543D01*
X239380Y604013D01*
X243220Y604013D01*
X246768Y602543D01*
X249483Y599828D01*
X250953Y596280D01*
X250953Y592440D01*
X249483Y588892D01*
X246768Y586177D01*
X243220Y584707D01*
X239380Y584707D01*
G37*
%LPD*%
%LPC*%
G36*
X26923Y604773D02*
X26923Y604773D01*
X26923Y613411D01*
X33820Y613411D01*
X35399Y613161D01*
X36920Y612666D01*
X38345Y611940D01*
X39639Y611000D01*
X40770Y609869D01*
X41710Y608575D01*
X42436Y607150D01*
X42931Y605629D01*
X43066Y604773D01*
X26923Y604773D01*
G37*
%LPD*%
%LPC*%
G36*
X179323Y579373D02*
X179323Y579373D01*
X179323Y588011D01*
X186220Y588011D01*
X187799Y587761D01*
X189320Y587266D01*
X190745Y586540D01*
X192039Y585600D01*
X193170Y584469D01*
X194110Y583175D01*
X194836Y581750D01*
X195331Y580229D01*
X195466Y579373D01*
X179323Y579373D01*
G37*
%LPD*%
%LPC*%
G36*
X319023Y278223D02*
X319023Y278223D01*
X319023Y286861D01*
X325920Y286861D01*
X327499Y286611D01*
X329020Y286116D01*
X330445Y285390D01*
X331739Y284450D01*
X332870Y283319D01*
X333810Y282025D01*
X334536Y280600D01*
X335031Y279079D01*
X335166Y278223D01*
X319023Y278223D01*
G37*
%LPD*%
%LPC*%
G36*
X179323Y249173D02*
X179323Y249173D01*
X179323Y257811D01*
X186220Y257811D01*
X187799Y257561D01*
X189320Y257066D01*
X190745Y256340D01*
X192039Y255400D01*
X193170Y254269D01*
X194110Y252975D01*
X194836Y251550D01*
X195331Y250029D01*
X195466Y249173D01*
X179323Y249173D01*
G37*
%LPD*%
%LPC*%
G36*
X7734Y604773D02*
X7734Y604773D01*
X7869Y605629D01*
X8364Y607150D01*
X9090Y608575D01*
X10030Y609869D01*
X11161Y611000D01*
X12455Y611940D01*
X13880Y612666D01*
X15401Y613161D01*
X16980Y613411D01*
X23877Y613411D01*
X23877Y604773D01*
X7734Y604773D01*
G37*
%LPD*%
%LPC*%
G36*
X160134Y579373D02*
X160134Y579373D01*
X160269Y580229D01*
X160764Y581750D01*
X161490Y583175D01*
X162430Y584469D01*
X163561Y585600D01*
X164855Y586540D01*
X166280Y587266D01*
X167801Y587761D01*
X169380Y588011D01*
X176277Y588011D01*
X176277Y579373D01*
X160134Y579373D01*
G37*
%LPD*%
%LPC*%
G36*
X160134Y249173D02*
X160134Y249173D01*
X160269Y250029D01*
X160764Y251550D01*
X161490Y252975D01*
X162430Y254269D01*
X163561Y255400D01*
X164855Y256340D01*
X166280Y257066D01*
X167801Y257561D01*
X169380Y257811D01*
X176277Y257811D01*
X176277Y249173D01*
X160134Y249173D01*
G37*
%LPD*%
%LPC*%
G36*
X299834Y278223D02*
X299834Y278223D01*
X299969Y279079D01*
X300464Y280600D01*
X301190Y282025D01*
X302130Y283319D01*
X303261Y284450D01*
X304555Y285390D01*
X305980Y286116D01*
X307501Y286611D01*
X309080Y286861D01*
X315977Y286861D01*
X315977Y278223D01*
X299834Y278223D01*
G37*
%LPD*%
%LPC*%
G36*
X26923Y593089D02*
X26923Y593089D01*
X26923Y601727D01*
X43066Y601727D01*
X42931Y600871D01*
X42436Y599350D01*
X41710Y597925D01*
X40770Y596631D01*
X39639Y595500D01*
X38345Y594560D01*
X36920Y593834D01*
X35399Y593339D01*
X33820Y593089D01*
X26923Y593089D01*
G37*
%LPD*%
%LPC*%
G36*
X179323Y237489D02*
X179323Y237489D01*
X179323Y246127D01*
X195466Y246127D01*
X195331Y245271D01*
X194836Y243750D01*
X194110Y242325D01*
X193170Y241031D01*
X192039Y239900D01*
X190745Y238960D01*
X189320Y238234D01*
X187799Y237739D01*
X186220Y237489D01*
X179323Y237489D01*
G37*
%LPD*%
%LPC*%
G36*
X319023Y266539D02*
X319023Y266539D01*
X319023Y275177D01*
X335166Y275177D01*
X335031Y274321D01*
X334536Y272800D01*
X333810Y271375D01*
X332870Y270081D01*
X331739Y268950D01*
X330445Y268010D01*
X329020Y267284D01*
X327499Y266789D01*
X325920Y266539D01*
X319023Y266539D01*
G37*
%LPD*%
%LPC*%
G36*
X179323Y567689D02*
X179323Y567689D01*
X179323Y576327D01*
X195466Y576327D01*
X195331Y575471D01*
X194836Y573950D01*
X194110Y572525D01*
X193170Y571231D01*
X192039Y570100D01*
X190745Y569160D01*
X189320Y568434D01*
X187799Y567939D01*
X186220Y567689D01*
X179323Y567689D01*
G37*
%LPD*%
%LPC*%
G36*
X16980Y593089D02*
X16980Y593089D01*
X15401Y593339D01*
X13880Y593834D01*
X12455Y594560D01*
X11161Y595500D01*
X10030Y596631D01*
X9090Y597925D01*
X8364Y599350D01*
X7869Y600871D01*
X7734Y601727D01*
X23877Y601727D01*
X23877Y593089D01*
X16980Y593089D01*
G37*
%LPD*%
%LPC*%
G36*
X309080Y266539D02*
X309080Y266539D01*
X307501Y266789D01*
X305980Y267284D01*
X304555Y268010D01*
X303261Y268950D01*
X302130Y270081D01*
X301190Y271375D01*
X300464Y272800D01*
X299969Y274321D01*
X299834Y275177D01*
X315977Y275177D01*
X315977Y266539D01*
X309080Y266539D01*
G37*
%LPD*%
%LPC*%
G36*
X169380Y567689D02*
X169380Y567689D01*
X167801Y567939D01*
X166280Y568434D01*
X164855Y569160D01*
X163561Y570100D01*
X162430Y571231D01*
X161490Y572525D01*
X160764Y573950D01*
X160269Y575471D01*
X160134Y576327D01*
X176277Y576327D01*
X176277Y567689D01*
X169380Y567689D01*
G37*
%LPD*%
%LPC*%
G36*
X169380Y237489D02*
X169380Y237489D01*
X167801Y237739D01*
X166280Y238234D01*
X164855Y238960D01*
X163561Y239900D01*
X162430Y241031D01*
X161490Y242325D01*
X160764Y243750D01*
X160269Y245271D01*
X160134Y246127D01*
X176277Y246127D01*
X176277Y237489D01*
X169380Y237489D01*
G37*
%LPD*%
%LPC*%
G36*
X242823Y575563D02*
X242823Y575563D01*
X242823Y583185D01*
X245088Y583185D01*
X250445Y577828D01*
X250445Y575563D01*
X242823Y575563D01*
G37*
%LPD*%
%LPC*%
G36*
X232155Y575563D02*
X232155Y575563D01*
X232155Y577828D01*
X237512Y583185D01*
X239777Y583185D01*
X239777Y575563D01*
X232155Y575563D01*
G37*
%LPD*%
%LPC*%
G36*
X242823Y564895D02*
X242823Y564895D01*
X242823Y572517D01*
X250445Y572517D01*
X250445Y570252D01*
X245088Y564895D01*
X242823Y564895D01*
G37*
%LPD*%
%LPC*%
G36*
X237512Y564895D02*
X237512Y564895D01*
X232155Y570252D01*
X232155Y572517D01*
X239777Y572517D01*
X239777Y564895D01*
X237512Y564895D01*
G37*
%LPD*%
%LPC*%
G36*
X25399Y603249D02*
X25399Y603249D01*
X25399Y603251D01*
X25401Y603251D01*
X25401Y603249D01*
X25399Y603249D01*
G37*
%LPD*%
%LPC*%
G36*
X177799Y577849D02*
X177799Y577849D01*
X177799Y577851D01*
X177801Y577851D01*
X177801Y577849D01*
X177799Y577849D01*
G37*
%LPD*%
%LPC*%
G36*
X241299Y574039D02*
X241299Y574039D01*
X241299Y574041D01*
X241301Y574041D01*
X241301Y574039D01*
X241299Y574039D01*
G37*
%LPD*%
%LPC*%
G36*
X177799Y247649D02*
X177799Y247649D01*
X177799Y247651D01*
X177801Y247651D01*
X177801Y247649D01*
X177799Y247649D01*
G37*
%LPD*%
%LPC*%
G36*
X317499Y276699D02*
X317499Y276699D01*
X317499Y276701D01*
X317501Y276701D01*
X317501Y276699D01*
X317499Y276699D01*
G37*
%LPD*%
D10*
X241300Y574040D03*
D11*
X241300Y594360D03*
D12*
X33020Y603250D02*
X17780Y603250D01*
X17780Y577850D02*
X33020Y577850D01*
X33020Y552450D02*
X17780Y552450D01*
X17780Y527050D02*
X33020Y527050D01*
X33020Y501650D02*
X17780Y501650D01*
X17780Y476250D02*
X33020Y476250D01*
X33020Y450850D02*
X17780Y450850D01*
X17780Y425450D02*
X33020Y425450D01*
X33020Y400050D02*
X17780Y400050D01*
X17780Y374650D02*
X33020Y374650D01*
X33020Y349250D02*
X17780Y349250D01*
X17780Y323850D02*
X33020Y323850D01*
X33020Y298450D02*
X17780Y298450D01*
X17780Y273050D02*
X33020Y273050D01*
X33020Y247650D02*
X17780Y247650D01*
X17780Y222250D02*
X33020Y222250D01*
X33020Y196850D02*
X17780Y196850D01*
X17780Y171450D02*
X33020Y171450D01*
X33020Y146050D02*
X17780Y146050D01*
X17780Y120650D02*
X33020Y120650D01*
X33020Y95250D02*
X17780Y95250D01*
X17780Y69850D02*
X33020Y69850D01*
X33020Y44450D02*
X17780Y44450D01*
X17780Y19050D02*
X33020Y19050D01*
X170180Y603250D02*
X185420Y603250D01*
X185420Y577850D02*
X170180Y577850D01*
X170180Y552450D02*
X185420Y552450D01*
X185420Y527050D02*
X170180Y527050D01*
X170180Y501650D02*
X185420Y501650D01*
X185420Y476250D02*
X170180Y476250D01*
X170180Y450850D02*
X185420Y450850D01*
X185420Y425450D02*
X170180Y425450D01*
X170180Y400050D02*
X185420Y400050D01*
X185420Y374650D02*
X170180Y374650D01*
X170180Y349250D02*
X185420Y349250D01*
X185420Y323850D02*
X170180Y323850D01*
X170180Y298450D02*
X185420Y298450D01*
X185420Y273050D02*
X170180Y273050D01*
X170180Y247650D02*
X185420Y247650D01*
X185420Y222250D02*
X170180Y222250D01*
X170180Y196850D02*
X185420Y196850D01*
X185420Y171450D02*
X170180Y171450D01*
X170180Y146050D02*
X185420Y146050D01*
X185420Y120650D02*
X170180Y120650D01*
X170180Y95250D02*
X185420Y95250D01*
X185420Y69850D02*
X170180Y69850D01*
X170180Y44450D02*
X185420Y44450D01*
X185420Y19050D02*
X170180Y19050D01*
X-309880Y251300D02*
X-325120Y251300D01*
X-325120Y225900D02*
X-309880Y225900D01*
X-309880Y200500D02*
X-325120Y200500D01*
X-325120Y175100D02*
X-309880Y175100D01*
X-309880Y149700D02*
X-325120Y149700D01*
X309880Y302100D02*
X325120Y302100D01*
X325120Y276700D02*
X309880Y276700D01*
X309880Y251300D02*
X325120Y251300D01*
X325120Y225900D02*
X309880Y225900D01*
X309880Y200500D02*
X325120Y200500D01*
X325120Y175100D02*
X309880Y175100D01*
X309880Y149700D02*
X325120Y149700D01*
X325120Y124300D02*
X309880Y124300D01*
X309880Y98900D02*
X325120Y98900D01*
D13*
X285750Y107950D03*
X-266700Y419100D03*
X-177800Y419100D03*
X-88900Y419100D03*
X0Y412750D03*
X-25400Y57150D03*
X-25400Y393700D03*
D14*
X-25400Y234950D02*
X-25400Y57150D01*
X-25400Y234950D02*
X-25400Y393700D01*
D13*
X-114300Y133350D03*
D14*
X-114300Y63500D01*
X-82042Y31242D01*
X146050Y44450D02*
X177800Y44450D01*
X132842Y31242D02*
X-82042Y31242D01*
X132842Y31242D02*
X146050Y44450D01*
X165130Y158242D02*
X190470Y158242D01*
X152938Y146050D02*
X25400Y146050D01*
X152938Y146050D02*
X165130Y158242D01*
X190470Y158242D02*
X199012Y149700D01*
X317500Y149700D01*
X146050Y171450D02*
X25400Y171450D01*
X146050Y171450D02*
X158750Y184150D01*
X196850Y184150D01*
X205900Y175100D02*
X317500Y175100D01*
X205900Y175100D02*
X196850Y184150D01*
X177800Y196850D02*
X313850Y196850D01*
X317500Y200500D01*
X241300Y222250D02*
X177800Y222250D01*
X270350Y251300D02*
X317500Y251300D01*
X270350Y251300D02*
X241300Y222250D01*
M02*
